<mxfile host="65bd71144e">
    <diagram name="Halaman-1" id="f-cThIh0bMvv7wwQ6LZK">
        <mxGraphModel dx="749" dy="466" grid="1" gridSize="10" guides="1" tooltips="1" connect="1" arrows="1" fold="1" page="1" pageScale="1" pageWidth="827" pageHeight="1169" math="0" shadow="0">
            <root>
                <mxCell id="0"/>
                <mxCell id="1" parent="0"/>
                <mxCell id="lS43BdNN7n9LaX_f6iE6-10" style="rounded=0;orthogonalLoop=1;jettySize=auto;html=1;exitX=0.5;exitY=0.5;exitDx=0;exitDy=0;exitPerimeter=0;entryX=0;entryY=0.5;entryDx=0;entryDy=0;" parent="1" source="lS43BdNN7n9LaX_f6iE6-2" target="lS43BdNN7n9LaX_f6iE6-7" edge="1">
                    <mxGeometry relative="1" as="geometry"/>
                </mxCell>
                <mxCell id="lS43BdNN7n9LaX_f6iE6-11" style="rounded=0;orthogonalLoop=1;jettySize=auto;html=1;exitX=0.5;exitY=0.5;exitDx=0;exitDy=0;exitPerimeter=0;entryX=0;entryY=0.5;entryDx=0;entryDy=0;" parent="1" source="lS43BdNN7n9LaX_f6iE6-2" target="lS43BdNN7n9LaX_f6iE6-1" edge="1">
                    <mxGeometry relative="1" as="geometry"/>
                </mxCell>
                <mxCell id="lS43BdNN7n9LaX_f6iE6-12" style="rounded=0;orthogonalLoop=1;jettySize=auto;html=1;exitX=0.5;exitY=0.5;exitDx=0;exitDy=0;exitPerimeter=0;" parent="1" source="lS43BdNN7n9LaX_f6iE6-2" target="lS43BdNN7n9LaX_f6iE6-8" edge="1">
                    <mxGeometry relative="1" as="geometry"/>
                </mxCell>
                <mxCell id="lS43BdNN7n9LaX_f6iE6-48" style="rounded=0;orthogonalLoop=1;jettySize=auto;html=1;exitX=0.5;exitY=0.5;exitDx=0;exitDy=0;exitPerimeter=0;entryX=0;entryY=0.5;entryDx=0;entryDy=0;" parent="1" source="lS43BdNN7n9LaX_f6iE6-2" target="lS43BdNN7n9LaX_f6iE6-20" edge="1">
                    <mxGeometry relative="1" as="geometry"/>
                </mxCell>
                <mxCell id="lS43BdNN7n9LaX_f6iE6-49" style="rounded=0;orthogonalLoop=1;jettySize=auto;html=1;exitX=0.5;exitY=0.5;exitDx=0;exitDy=0;exitPerimeter=0;entryX=0;entryY=0.5;entryDx=0;entryDy=0;" parent="1" source="lS43BdNN7n9LaX_f6iE6-2" target="lS43BdNN7n9LaX_f6iE6-19" edge="1">
                    <mxGeometry relative="1" as="geometry"/>
                </mxCell>
                <mxCell id="lS43BdNN7n9LaX_f6iE6-50" style="rounded=0;orthogonalLoop=1;jettySize=auto;html=1;exitX=0.5;exitY=0.5;exitDx=0;exitDy=0;exitPerimeter=0;entryX=0;entryY=0.5;entryDx=0;entryDy=0;" parent="1" source="lS43BdNN7n9LaX_f6iE6-2" target="lS43BdNN7n9LaX_f6iE6-21" edge="1">
                    <mxGeometry relative="1" as="geometry"/>
                </mxCell>
                <mxCell id="lS43BdNN7n9LaX_f6iE6-52" style="rounded=0;orthogonalLoop=1;jettySize=auto;html=1;exitX=0.5;exitY=0.5;exitDx=0;exitDy=0;exitPerimeter=0;entryX=0;entryY=0.5;entryDx=0;entryDy=0;" parent="1" source="lS43BdNN7n9LaX_f6iE6-2" target="lS43BdNN7n9LaX_f6iE6-18" edge="1">
                    <mxGeometry relative="1" as="geometry"/>
                </mxCell>
                <mxCell id="lS43BdNN7n9LaX_f6iE6-88" style="rounded=0;orthogonalLoop=1;jettySize=auto;html=1;exitX=0.5;exitY=0.5;exitDx=0;exitDy=0;exitPerimeter=0;" parent="1" source="lS43BdNN7n9LaX_f6iE6-2" target="lS43BdNN7n9LaX_f6iE6-84" edge="1">
                    <mxGeometry relative="1" as="geometry"/>
                </mxCell>
                <mxCell id="lS43BdNN7n9LaX_f6iE6-89" style="rounded=0;orthogonalLoop=1;jettySize=auto;html=1;exitX=0.5;exitY=0.5;exitDx=0;exitDy=0;exitPerimeter=0;entryX=0;entryY=0.5;entryDx=0;entryDy=0;" parent="1" source="lS43BdNN7n9LaX_f6iE6-2" target="lS43BdNN7n9LaX_f6iE6-85" edge="1">
                    <mxGeometry relative="1" as="geometry"/>
                </mxCell>
                <mxCell id="lS43BdNN7n9LaX_f6iE6-90" style="rounded=0;orthogonalLoop=1;jettySize=auto;html=1;exitX=0.5;exitY=0.5;exitDx=0;exitDy=0;exitPerimeter=0;entryX=0;entryY=0.5;entryDx=0;entryDy=0;" parent="1" source="lS43BdNN7n9LaX_f6iE6-2" target="lS43BdNN7n9LaX_f6iE6-86" edge="1">
                    <mxGeometry relative="1" as="geometry"/>
                </mxCell>
                <mxCell id="lS43BdNN7n9LaX_f6iE6-91" style="rounded=0;orthogonalLoop=1;jettySize=auto;html=1;exitX=0.5;exitY=0.5;exitDx=0;exitDy=0;exitPerimeter=0;entryX=0;entryY=0.5;entryDx=0;entryDy=0;" parent="1" source="lS43BdNN7n9LaX_f6iE6-2" target="lS43BdNN7n9LaX_f6iE6-87" edge="1">
                    <mxGeometry relative="1" as="geometry"/>
                </mxCell>
                <mxCell id="lS43BdNN7n9LaX_f6iE6-13" style="rounded=0;orthogonalLoop=1;jettySize=auto;html=1;exitX=0.5;exitY=0.5;exitDx=0;exitDy=0;exitPerimeter=0;entryX=0;entryY=0.5;entryDx=0;entryDy=0;" parent="1" source="lS43BdNN7n9LaX_f6iE6-4" target="lS43BdNN7n9LaX_f6iE6-1" edge="1">
                    <mxGeometry relative="1" as="geometry"/>
                </mxCell>
                <mxCell id="lS43BdNN7n9LaX_f6iE6-14" style="rounded=0;orthogonalLoop=1;jettySize=auto;html=1;exitX=0.5;exitY=0.5;exitDx=0;exitDy=0;exitPerimeter=0;entryX=0;entryY=0.5;entryDx=0;entryDy=0;" parent="1" source="lS43BdNN7n9LaX_f6iE6-4" target="lS43BdNN7n9LaX_f6iE6-8" edge="1">
                    <mxGeometry relative="1" as="geometry"/>
                </mxCell>
                <mxCell id="lS43BdNN7n9LaX_f6iE6-15" style="rounded=0;orthogonalLoop=1;jettySize=auto;html=1;exitX=0.5;exitY=0.5;exitDx=0;exitDy=0;exitPerimeter=0;entryX=0;entryY=0.5;entryDx=0;entryDy=0;" parent="1" source="lS43BdNN7n9LaX_f6iE6-4" target="lS43BdNN7n9LaX_f6iE6-7" edge="1">
                    <mxGeometry relative="1" as="geometry"/>
                </mxCell>
                <mxCell id="lS43BdNN7n9LaX_f6iE6-29" style="rounded=0;orthogonalLoop=1;jettySize=auto;html=1;exitX=0.5;exitY=0.5;exitDx=0;exitDy=0;exitPerimeter=0;entryX=0;entryY=0.5;entryDx=0;entryDy=0;startArrow=none;" parent="1" source="lS43BdNN7n9LaX_f6iE6-21" target="lS43BdNN7n9LaX_f6iE6-18" edge="1">
                    <mxGeometry relative="1" as="geometry"/>
                </mxCell>
                <mxCell id="lS43BdNN7n9LaX_f6iE6-92" style="rounded=0;orthogonalLoop=1;jettySize=auto;html=1;exitX=0.5;exitY=0.5;exitDx=0;exitDy=0;exitPerimeter=0;entryX=0;entryY=0.5;entryDx=0;entryDy=0;" parent="1" source="lS43BdNN7n9LaX_f6iE6-4" target="lS43BdNN7n9LaX_f6iE6-87" edge="1">
                    <mxGeometry relative="1" as="geometry"/>
                </mxCell>
                <mxCell id="lS43BdNN7n9LaX_f6iE6-62" style="rounded=0;orthogonalLoop=1;jettySize=auto;html=1;exitX=1;exitY=1;exitDx=0;exitDy=0;entryX=0;entryY=0;entryDx=0;entryDy=0;dashed=1;" parent="1" source="lS43BdNN7n9LaX_f6iE6-1" target="lS43BdNN7n9LaX_f6iE6-7" edge="1">
                    <mxGeometry relative="1" as="geometry"/>
                </mxCell>
                <mxCell id="lS43BdNN7n9LaX_f6iE6-63" value="&amp;lt;&amp;lt;include&amp;gt;&amp;gt;" style="edgeLabel;html=1;align=center;verticalAlign=middle;resizable=0;points=[];" parent="lS43BdNN7n9LaX_f6iE6-62" vertex="1" connectable="0">
                    <mxGeometry relative="1" as="geometry">
                        <mxPoint as="offset"/>
                    </mxGeometry>
                </mxCell>
                <mxCell id="lS43BdNN7n9LaX_f6iE6-64" style="rounded=0;orthogonalLoop=1;jettySize=auto;html=1;exitX=1;exitY=0;exitDx=0;exitDy=0;dashed=1;entryX=1;entryY=1;entryDx=0;entryDy=0;" parent="1" source="lS43BdNN7n9LaX_f6iE6-1" target="lS43BdNN7n9LaX_f6iE6-8" edge="1">
                    <mxGeometry relative="1" as="geometry"/>
                </mxCell>
                <mxCell id="lS43BdNN7n9LaX_f6iE6-65" value="&amp;lt;&amp;lt;extend&amp;gt;&amp;gt;" style="edgeLabel;html=1;align=center;verticalAlign=middle;resizable=0;points=[];" parent="lS43BdNN7n9LaX_f6iE6-64" vertex="1" connectable="0">
                    <mxGeometry relative="1" as="geometry">
                        <mxPoint as="offset"/>
                    </mxGeometry>
                </mxCell>
                <mxCell id="lS43BdNN7n9LaX_f6iE6-1" value="Login" style="ellipse;whiteSpace=wrap;html=1;" parent="1" vertex="1">
                    <mxGeometry x="170" y="80" width="50" height="30" as="geometry"/>
                </mxCell>
                <mxCell id="7" style="edgeStyle=none;html=1;exitX=0.5;exitY=0.5;exitDx=0;exitDy=0;exitPerimeter=0;entryX=0;entryY=0.5;entryDx=0;entryDy=0;" edge="1" parent="1" source="lS43BdNN7n9LaX_f6iE6-2" target="6">
                    <mxGeometry relative="1" as="geometry"/>
                </mxCell>
                <mxCell id="14" style="edgeStyle=none;html=1;exitX=0.5;exitY=0.5;exitDx=0;exitDy=0;exitPerimeter=0;entryX=0;entryY=0.5;entryDx=0;entryDy=0;" edge="1" parent="1" source="lS43BdNN7n9LaX_f6iE6-2" target="12">
                    <mxGeometry relative="1" as="geometry"/>
                </mxCell>
                <mxCell id="15" style="edgeStyle=none;html=1;exitX=0.5;exitY=0.5;exitDx=0;exitDy=0;exitPerimeter=0;entryX=0;entryY=0.5;entryDx=0;entryDy=0;" edge="1" parent="1" source="lS43BdNN7n9LaX_f6iE6-2" target="13">
                    <mxGeometry relative="1" as="geometry"/>
                </mxCell>
                <mxCell id="19" style="edgeStyle=none;html=1;exitX=0.5;exitY=0.5;exitDx=0;exitDy=0;exitPerimeter=0;entryX=0;entryY=0.5;entryDx=0;entryDy=0;" edge="1" parent="1" source="lS43BdNN7n9LaX_f6iE6-2" target="16">
                    <mxGeometry relative="1" as="geometry"/>
                </mxCell>
                <mxCell id="20" style="edgeStyle=none;html=1;exitX=0.5;exitY=0.5;exitDx=0;exitDy=0;exitPerimeter=0;entryX=0;entryY=0.5;entryDx=0;entryDy=0;" edge="1" parent="1" source="lS43BdNN7n9LaX_f6iE6-2" target="lS43BdNN7n9LaX_f6iE6-22">
                    <mxGeometry relative="1" as="geometry"/>
                </mxCell>
                <mxCell id="23" style="edgeStyle=none;html=1;exitX=0.5;exitY=0.5;exitDx=0;exitDy=0;exitPerimeter=0;entryX=0.5;entryY=0;entryDx=0;entryDy=0;" edge="1" parent="1" source="lS43BdNN7n9LaX_f6iE6-2" target="2">
                    <mxGeometry relative="1" as="geometry"/>
                </mxCell>
                <mxCell id="25" style="edgeStyle=none;html=1;exitX=0.5;exitY=0.5;exitDx=0;exitDy=0;exitPerimeter=0;entryX=0;entryY=0.5;entryDx=0;entryDy=0;" edge="1" parent="1" source="lS43BdNN7n9LaX_f6iE6-2" target="8">
                    <mxGeometry relative="1" as="geometry"/>
                </mxCell>
                <mxCell id="27" style="edgeStyle=none;html=1;exitX=0.5;exitY=0.5;exitDx=0;exitDy=0;exitPerimeter=0;entryX=0;entryY=0.5;entryDx=0;entryDy=0;" edge="1" parent="1" source="lS43BdNN7n9LaX_f6iE6-2" target="26">
                    <mxGeometry relative="1" as="geometry"/>
                </mxCell>
                <mxCell id="lS43BdNN7n9LaX_f6iE6-2" value="Guru" style="shape=umlActor;verticalLabelPosition=bottom;verticalAlign=top;html=1;outlineConnect=0;" parent="1" vertex="1">
                    <mxGeometry x="10" y="130" width="30" height="60" as="geometry"/>
                </mxCell>
                <mxCell id="21" style="edgeStyle=none;html=1;exitX=0.5;exitY=0.5;exitDx=0;exitDy=0;exitPerimeter=0;entryX=0;entryY=0.5;entryDx=0;entryDy=0;" edge="1" parent="1" source="lS43BdNN7n9LaX_f6iE6-4" target="lS43BdNN7n9LaX_f6iE6-22">
                    <mxGeometry relative="1" as="geometry"/>
                </mxCell>
                <mxCell id="22" style="edgeStyle=none;html=1;exitX=0.5;exitY=0.5;exitDx=0;exitDy=0;exitPerimeter=0;entryX=0;entryY=0.5;entryDx=0;entryDy=0;" edge="1" parent="1" source="lS43BdNN7n9LaX_f6iE6-4" target="16">
                    <mxGeometry relative="1" as="geometry"/>
                </mxCell>
                <mxCell id="28" style="edgeStyle=none;html=1;exitX=0.5;exitY=0.5;exitDx=0;exitDy=0;exitPerimeter=0;entryX=0;entryY=0.5;entryDx=0;entryDy=0;" edge="1" parent="1" source="lS43BdNN7n9LaX_f6iE6-4" target="26">
                    <mxGeometry relative="1" as="geometry">
                        <mxPoint x="540" y="350" as="targetPoint"/>
                    </mxGeometry>
                </mxCell>
                <mxCell id="lS43BdNN7n9LaX_f6iE6-4" value="Siswa" style="shape=umlActor;verticalLabelPosition=bottom;verticalAlign=top;html=1;outlineConnect=0;" parent="1" vertex="1">
                    <mxGeometry x="10" y="430" width="30" height="60" as="geometry"/>
                </mxCell>
                <mxCell id="lS43BdNN7n9LaX_f6iE6-5" value="Admin" style="shape=umlActor;verticalLabelPosition=bottom;verticalAlign=top;html=1;outlineConnect=0;" parent="1" vertex="1">
                    <mxGeometry x="770" y="330" width="30" height="60" as="geometry"/>
                </mxCell>
                <mxCell id="lS43BdNN7n9LaX_f6iE6-7" value="Register" style="ellipse;whiteSpace=wrap;html=1;" parent="1" vertex="1">
                    <mxGeometry x="310" y="90" width="70" height="30" as="geometry"/>
                </mxCell>
                <mxCell id="lS43BdNN7n9LaX_f6iE6-8" value="Lupa Password" style="ellipse;whiteSpace=wrap;html=1;" parent="1" vertex="1">
                    <mxGeometry x="140" y="20" width="110" height="30" as="geometry"/>
                </mxCell>
                <mxCell id="lS43BdNN7n9LaX_f6iE6-24" style="rounded=0;orthogonalLoop=1;jettySize=auto;html=1;exitX=1;exitY=1;exitDx=0;exitDy=0;entryX=0.5;entryY=0;entryDx=0;entryDy=0;dashed=1;" parent="1" source="lS43BdNN7n9LaX_f6iE6-18" target="lS43BdNN7n9LaX_f6iE6-22" edge="1">
                    <mxGeometry relative="1" as="geometry"/>
                </mxCell>
                <mxCell id="lS43BdNN7n9LaX_f6iE6-25" value="&amp;lt;&amp;lt;extend&amp;gt;&amp;gt;" style="edgeLabel;align=center;verticalAlign=middle;resizable=0;points=[];html=1;labelPosition=center;verticalLabelPosition=middle;rotation=0;" parent="lS43BdNN7n9LaX_f6iE6-24" vertex="1" connectable="0">
                    <mxGeometry relative="1" as="geometry">
                        <mxPoint as="offset"/>
                    </mxGeometry>
                </mxCell>
                <mxCell id="lS43BdNN7n9LaX_f6iE6-18" value="Menonton Video" style="ellipse;whiteSpace=wrap;html=1;" parent="1" vertex="1">
                    <mxGeometry x="360" y="440" width="110" height="30" as="geometry"/>
                </mxCell>
                <mxCell id="lS43BdNN7n9LaX_f6iE6-19" value="Menghapus Video" style="ellipse;whiteSpace=wrap;html=1;" parent="1" vertex="1">
                    <mxGeometry x="200" y="340" width="120" height="30" as="geometry"/>
                </mxCell>
                <mxCell id="lS43BdNN7n9LaX_f6iE6-20" value="Mengedit Video" style="ellipse;whiteSpace=wrap;html=1;" parent="1" vertex="1">
                    <mxGeometry x="200" y="390" width="110" height="30" as="geometry"/>
                </mxCell>
                <mxCell id="3" style="edgeStyle=none;html=1;entryX=0.5;entryY=0;entryDx=0;entryDy=0;dashed=1;" edge="1" parent="1" source="lS43BdNN7n9LaX_f6iE6-21" target="2">
                    <mxGeometry relative="1" as="geometry"/>
                </mxCell>
                <mxCell id="4" value="&amp;lt;&amp;lt;extend&amp;gt;&amp;gt;" style="edgeLabel;html=1;align=center;verticalAlign=middle;resizable=0;points=[];" vertex="1" connectable="0" parent="3">
                    <mxGeometry x="0.1902" relative="1" as="geometry">
                        <mxPoint x="2" y="-4" as="offset"/>
                    </mxGeometry>
                </mxCell>
                <mxCell id="lS43BdNN7n9LaX_f6iE6-22" value="Membuat diskusi" style="ellipse;whiteSpace=wrap;html=1;" parent="1" vertex="1">
                    <mxGeometry x="480" y="510" width="100" height="30" as="geometry"/>
                </mxCell>
                <mxCell id="lS43BdNN7n9LaX_f6iE6-84" value="Membuat Kelas" style="ellipse;whiteSpace=wrap;html=1;fillColor=default;" parent="1" vertex="1">
                    <mxGeometry x="390" y="110" width="110" height="30" as="geometry"/>
                </mxCell>
                <mxCell id="lS43BdNN7n9LaX_f6iE6-85" value="Mengedit Kelas" style="ellipse;whiteSpace=wrap;html=1;fillColor=default;" parent="1" vertex="1">
                    <mxGeometry x="390" y="157" width="110" height="30" as="geometry"/>
                </mxCell>
                <mxCell id="lS43BdNN7n9LaX_f6iE6-86" value="Menghapus Kelas" style="ellipse;whiteSpace=wrap;html=1;fillColor=default;" parent="1" vertex="1">
                    <mxGeometry x="390" y="203" width="120" height="30" as="geometry"/>
                </mxCell>
                <mxCell id="lS43BdNN7n9LaX_f6iE6-87" value="Masuk Kelas" style="ellipse;whiteSpace=wrap;html=1;fillColor=default;" parent="1" vertex="1">
                    <mxGeometry x="390" y="250" width="90" height="30" as="geometry"/>
                </mxCell>
                <mxCell id="2" value="Menambahkan quiz" style="ellipse;whiteSpace=wrap;html=1;" vertex="1" parent="1">
                    <mxGeometry x="100" y="520" width="140" height="30" as="geometry"/>
                </mxCell>
                <mxCell id="6" value="Melihat kelas" style="ellipse;whiteSpace=wrap;html=1;fillColor=default;" vertex="1" parent="1">
                    <mxGeometry x="390" y="300" width="90" height="30" as="geometry"/>
                </mxCell>
                <mxCell id="8" value="Membuat Post" style="ellipse;whiteSpace=wrap;html=1;fillColor=default;" vertex="1" parent="1">
                    <mxGeometry x="540" y="190" width="110" height="30" as="geometry"/>
                </mxCell>
                <mxCell id="12" value="Mengedit Post" style="ellipse;whiteSpace=wrap;html=1;fillColor=default;" vertex="1" parent="1">
                    <mxGeometry x="540" y="240" width="110" height="30" as="geometry"/>
                </mxCell>
                <mxCell id="13" value="Menghapus Post" style="ellipse;whiteSpace=wrap;html=1;fillColor=default;" vertex="1" parent="1">
                    <mxGeometry x="540" y="280" width="110" height="30" as="geometry"/>
                </mxCell>
                <mxCell id="16" value="Menghapus diskusi" style="ellipse;whiteSpace=wrap;html=1;" vertex="1" parent="1">
                    <mxGeometry x="460" y="380" width="130" height="30" as="geometry"/>
                </mxCell>
                <mxCell id="17" style="rounded=0;orthogonalLoop=1;jettySize=auto;html=1;exitX=0.955;exitY=0.15;exitDx=0;exitDy=0;entryX=0.5;entryY=1;entryDx=0;entryDy=0;dashed=1;exitPerimeter=0;" edge="1" parent="1" source="lS43BdNN7n9LaX_f6iE6-18" target="16">
                    <mxGeometry relative="1" as="geometry">
                        <mxPoint x="479" y="440" as="sourcePoint"/>
                        <mxPoint x="510" y="510" as="targetPoint"/>
                    </mxGeometry>
                </mxCell>
                <mxCell id="18" value="&amp;lt;&amp;lt;extend&amp;gt;&amp;gt;" style="edgeLabel;align=center;verticalAlign=middle;resizable=0;points=[];html=1;labelPosition=center;verticalLabelPosition=middle;rotation=0;" vertex="1" connectable="0" parent="17">
                    <mxGeometry relative="1" as="geometry">
                        <mxPoint as="offset"/>
                    </mxGeometry>
                </mxCell>
                <mxCell id="24" value="" style="rounded=0;orthogonalLoop=1;jettySize=auto;html=1;exitX=0.5;exitY=0.5;exitDx=0;exitDy=0;exitPerimeter=0;entryX=0;entryY=0.5;entryDx=0;entryDy=0;endArrow=none;" edge="1" parent="1" source="lS43BdNN7n9LaX_f6iE6-4" target="lS43BdNN7n9LaX_f6iE6-21">
                    <mxGeometry relative="1" as="geometry">
                        <mxPoint x="25" y="460" as="sourcePoint"/>
                        <mxPoint x="360" y="455" as="targetPoint"/>
                    </mxGeometry>
                </mxCell>
                <mxCell id="lS43BdNN7n9LaX_f6iE6-21" value="Menambahkan Video" style="ellipse;whiteSpace=wrap;html=1;" parent="1" vertex="1">
                    <mxGeometry x="185" y="445" width="140" height="30" as="geometry"/>
                </mxCell>
                <mxCell id="26" value="Melihat Post" style="ellipse;whiteSpace=wrap;html=1;fillColor=default;" vertex="1" parent="1">
                    <mxGeometry x="540" y="330" width="110" height="30" as="geometry"/>
                </mxCell>
            </root>
        </mxGraphModel>
    </diagram>
</mxfile>